# xmcd
#
# Track frame offsets: 
#        150
#        7519
#        29339
#        37809
#        63206
#        91311
#        98759
#        121856
#        172001
#        192711
#        210079
#
# Disc length: 2857 seconds
#
# Revision: 1
# Processed by: cddbd v1.5.2PL0 Copyright (c) Steve Scherf et al.
# Submitted via: ExactAudioCopyFreeDBPlugin 1.0
#
DISCID=7b0b270b
DTITLE=Raheem DeVaughn - The Love and War MasterPeace (The War Side)
DYEAR=2010
DGENRE=R&B
TTITLE0=Dr. Cornel West (Intro)
TTITLE1=Wing and A Prayer (feat. Bun B)
TTITLE2=Dr. Cornel West (Interlude)
TTITLE3=Super Hero
TTITLE4=Soldier Story
TTITLE5=Dr. Cornel West (P.S.A.)
TTITLE6=Hopeless Romantic
TTITLE7=Lose Control (feat. Phil Ade')
TTITLE8=Calling Me
TTITLE9=XOXO
TTITLE10=Dr. Cornel West (Outro)
EXTD=
EXTT0=
EXTT1=
EXTT2=
EXTT3=
EXTT4=
EXTT5=
EXTT6=
EXTT7=
EXTT8=
EXTT9=
EXTT10=
PLAYORDER=
